<svg id="Layer_1" enable-background="new 0 0 511.958 511.958" height="512" viewBox="0 0 511.958 511.958" width="512" xmlns="http://www.w3.org/2000/svg"><g><path d="m488.838 275.581-213.257 213.257c-10.826 10.826-28.379 10.826-39.205 0l-213.256-213.257c-10.826-10.826-10.826-28.379 0-39.205l213.257-213.256c10.826-10.826 28.379-10.826 39.205 0l213.257 213.257c10.826 10.826 10.826 28.378-.001 39.204z" fill="#fff5f5"/><path d="m488.839 236.377-213.258-213.257c-5.413-5.413-12.508-8.12-19.602-8.12v481.958c7.095 0 14.189-2.707 19.602-8.12l213.257-213.257c10.827-10.826 10.827-28.378.001-39.204z" fill="#e6e6f2"/><path d="m255.979 511.958c-11.412 0-22.14-4.444-30.209-12.513l-213.257-213.257c-8.069-8.069-12.513-18.797-12.513-30.209s4.444-22.14 12.513-30.209l213.257-213.257c8.069-8.069 18.797-12.513 30.209-12.513s22.14 4.444 30.209 12.513l213.257 213.257c8.069 8.069 12.513 18.797 12.513 30.209s-4.444 22.14-12.513 30.209l-213.257 213.257c-8.069 8.069-18.797 12.513-30.209 12.513zm0-481.958c-3.398 0-6.593 1.323-8.996 3.726l-213.257 213.257c-4.96 4.96-4.96 13.032 0 17.992l213.257 213.257c2.403 2.403 5.598 3.726 8.996 3.726s6.593-1.323 8.996-3.726l213.257-213.257c4.96-4.96 4.96-13.032 0-17.992l-213.257-213.257c-2.403-2.403-5.598-3.726-8.996-3.726z" fill="#3e4d59"/><path d="m499.445 225.77-213.257-213.257c-8.069-8.069-18.797-12.513-30.209-12.513v30c3.398 0 6.593 1.323 8.996 3.726l213.257 213.257c4.96 4.96 4.96 13.032 0 17.992l-213.257 213.257c-2.403 2.403-5.598 3.726-8.996 3.726v30c11.412 0 22.14-4.444 30.209-12.513l213.257-213.257c8.069-8.069 12.513-18.797 12.513-30.209s-4.444-22.14-12.513-30.209z" fill="#242833"/><path d="m119.177 119.177h273.603v273.603h-273.603z" fill="#fdcb02" transform="matrix(.707 -.707 .707 .707 -106.03 255.979)"/><path d="m255.979 62.512v386.934l193.467-193.467z" fill="#fdae02"/></g></svg>