<?xml version="1.0" encoding="utf-8" standalone="no"?>
<!DOCTYPE svg PUBLIC "-//W3C//DTD SVG 1.1//EN"
  "http://www.w3.org/Graphics/SVG/1.1/DTD/svg11.dtd">
<!-- Created with matplotlib (https://matplotlib.org/) -->
<svg height="345.6pt" version="1.1" viewBox="0 0 460.8 345.6" width="460.8pt" xmlns="http://www.w3.org/2000/svg" xmlns:xlink="http://www.w3.org/1999/xlink">
 <metadata>
  <rdf:RDF xmlns:cc="http://creativecommons.org/ns#" xmlns:dc="http://purl.org/dc/elements/1.1/" xmlns:rdf="http://www.w3.org/1999/02/22-rdf-syntax-ns#">
   <cc:Work>
    <dc:type rdf:resource="http://purl.org/dc/dcmitype/StillImage"/>
    <dc:date>2021-01-07T23:54:31.633167</dc:date>
    <dc:format>image/svg+xml</dc:format>
    <dc:creator>
     <cc:Agent>
      <dc:title>Matplotlib v3.3.3, https://matplotlib.org/</dc:title>
     </cc:Agent>
    </dc:creator>
   </cc:Work>
  </rdf:RDF>
 </metadata>
 <defs>
  <style type="text/css">*{stroke-linecap:butt;stroke-linejoin:round;}</style>
 </defs>
 <g id="figure_1">
  <g id="patch_1">
   <path d="M 0 345.6 
L 460.8 345.6 
L 460.8 0 
L 0 0 
z
" style="fill:#ffffff;"/>
  </g>
  <g id="axes_1">
   <g id="patch_2">
    <path d="M 57.6 307.584 
L 414.72 307.584 
L 414.72 41.472 
L 57.6 41.472 
z
" style="fill:#ffffff;"/>
   </g>
   <g id="matplotlib.axis_1">
    <g id="xtick_1">
     <g id="line2d_1">
      <defs>
       <path d="M 0 0 
L 0 3.5 
" id="meb953def2d" style="stroke:#000000;stroke-width:0.8;"/>
      </defs>
      <g>
       <use style="stroke:#000000;stroke-width:0.8;" x="109.905455" xlink:href="#meb953def2d" y="307.584"/>
      </g>
     </g>
     <g id="text_1">
      <!-- 2 -->
      <g transform="translate(106.724205 322.182437)scale(0.1 -0.1)">
       <defs>
        <path d="M 19.1875 8.296875 
L 53.609375 8.296875 
L 53.609375 0 
L 7.328125 0 
L 7.328125 8.296875 
Q 12.9375 14.109375 22.625 23.890625 
Q 32.328125 33.6875 34.8125 36.53125 
Q 39.546875 41.84375 41.421875 45.53125 
Q 43.3125 49.21875 43.3125 52.78125 
Q 43.3125 58.59375 39.234375 62.25 
Q 35.15625 65.921875 28.609375 65.921875 
Q 23.96875 65.921875 18.8125 64.3125 
Q 13.671875 62.703125 7.8125 59.421875 
L 7.8125 69.390625 
Q 13.765625 71.78125 18.9375 73 
Q 24.125 74.21875 28.421875 74.21875 
Q 39.75 74.21875 46.484375 68.546875 
Q 53.21875 62.890625 53.21875 53.421875 
Q 53.21875 48.921875 51.53125 44.890625 
Q 49.859375 40.875 45.40625 35.40625 
Q 44.1875 33.984375 37.640625 27.21875 
Q 31.109375 20.453125 19.1875 8.296875 
z
" id="DejaVuSans-50"/>
       </defs>
       <use xlink:href="#DejaVuSans-50"/>
      </g>
     </g>
    </g>
    <g id="xtick_2">
     <g id="line2d_2">
      <g>
       <use style="stroke:#000000;stroke-width:0.8;" x="182.050909" xlink:href="#meb953def2d" y="307.584"/>
      </g>
     </g>
     <g id="text_2">
      <!-- 4 -->
      <g transform="translate(178.869659 322.182437)scale(0.1 -0.1)">
       <defs>
        <path d="M 37.796875 64.3125 
L 12.890625 25.390625 
L 37.796875 25.390625 
z
M 35.203125 72.90625 
L 47.609375 72.90625 
L 47.609375 25.390625 
L 58.015625 25.390625 
L 58.015625 17.1875 
L 47.609375 17.1875 
L 47.609375 0 
L 37.796875 0 
L 37.796875 17.1875 
L 4.890625 17.1875 
L 4.890625 26.703125 
z
" id="DejaVuSans-52"/>
       </defs>
       <use xlink:href="#DejaVuSans-52"/>
      </g>
     </g>
    </g>
    <g id="xtick_3">
     <g id="line2d_3">
      <g>
       <use style="stroke:#000000;stroke-width:0.8;" x="254.196364" xlink:href="#meb953def2d" y="307.584"/>
      </g>
     </g>
     <g id="text_3">
      <!-- 6 -->
      <g transform="translate(251.015114 322.182437)scale(0.1 -0.1)">
       <defs>
        <path d="M 33.015625 40.375 
Q 26.375 40.375 22.484375 35.828125 
Q 18.609375 31.296875 18.609375 23.390625 
Q 18.609375 15.53125 22.484375 10.953125 
Q 26.375 6.390625 33.015625 6.390625 
Q 39.65625 6.390625 43.53125 10.953125 
Q 47.40625 15.53125 47.40625 23.390625 
Q 47.40625 31.296875 43.53125 35.828125 
Q 39.65625 40.375 33.015625 40.375 
z
M 52.59375 71.296875 
L 52.59375 62.3125 
Q 48.875 64.0625 45.09375 64.984375 
Q 41.3125 65.921875 37.59375 65.921875 
Q 27.828125 65.921875 22.671875 59.328125 
Q 17.53125 52.734375 16.796875 39.40625 
Q 19.671875 43.65625 24.015625 45.921875 
Q 28.375 48.1875 33.59375 48.1875 
Q 44.578125 48.1875 50.953125 41.515625 
Q 57.328125 34.859375 57.328125 23.390625 
Q 57.328125 12.15625 50.6875 5.359375 
Q 44.046875 -1.421875 33.015625 -1.421875 
Q 20.359375 -1.421875 13.671875 8.265625 
Q 6.984375 17.96875 6.984375 36.375 
Q 6.984375 53.65625 15.1875 63.9375 
Q 23.390625 74.21875 37.203125 74.21875 
Q 40.921875 74.21875 44.703125 73.484375 
Q 48.484375 72.75 52.59375 71.296875 
z
" id="DejaVuSans-54"/>
       </defs>
       <use xlink:href="#DejaVuSans-54"/>
      </g>
     </g>
    </g>
    <g id="xtick_4">
     <g id="line2d_4">
      <g>
       <use style="stroke:#000000;stroke-width:0.8;" x="326.341818" xlink:href="#meb953def2d" y="307.584"/>
      </g>
     </g>
     <g id="text_4">
      <!-- 8 -->
      <g transform="translate(323.160568 322.182437)scale(0.1 -0.1)">
       <defs>
        <path d="M 31.78125 34.625 
Q 24.75 34.625 20.71875 30.859375 
Q 16.703125 27.09375 16.703125 20.515625 
Q 16.703125 13.921875 20.71875 10.15625 
Q 24.75 6.390625 31.78125 6.390625 
Q 38.8125 6.390625 42.859375 10.171875 
Q 46.921875 13.96875 46.921875 20.515625 
Q 46.921875 27.09375 42.890625 30.859375 
Q 38.875 34.625 31.78125 34.625 
z
M 21.921875 38.8125 
Q 15.578125 40.375 12.03125 44.71875 
Q 8.5 49.078125 8.5 55.328125 
Q 8.5 64.0625 14.71875 69.140625 
Q 20.953125 74.21875 31.78125 74.21875 
Q 42.671875 74.21875 48.875 69.140625 
Q 55.078125 64.0625 55.078125 55.328125 
Q 55.078125 49.078125 51.53125 44.71875 
Q 48 40.375 41.703125 38.8125 
Q 48.828125 37.15625 52.796875 32.3125 
Q 56.78125 27.484375 56.78125 20.515625 
Q 56.78125 9.90625 50.3125 4.234375 
Q 43.84375 -1.421875 31.78125 -1.421875 
Q 19.734375 -1.421875 13.25 4.234375 
Q 6.78125 9.90625 6.78125 20.515625 
Q 6.78125 27.484375 10.78125 32.3125 
Q 14.796875 37.15625 21.921875 38.8125 
z
M 18.3125 54.390625 
Q 18.3125 48.734375 21.84375 45.5625 
Q 25.390625 42.390625 31.78125 42.390625 
Q 38.140625 42.390625 41.71875 45.5625 
Q 45.3125 48.734375 45.3125 54.390625 
Q 45.3125 60.0625 41.71875 63.234375 
Q 38.140625 66.40625 31.78125 66.40625 
Q 25.390625 66.40625 21.84375 63.234375 
Q 18.3125 60.0625 18.3125 54.390625 
z
" id="DejaVuSans-56"/>
       </defs>
       <use xlink:href="#DejaVuSans-56"/>
      </g>
     </g>
    </g>
    <g id="xtick_5">
     <g id="line2d_5">
      <g>
       <use style="stroke:#000000;stroke-width:0.8;" x="398.487273" xlink:href="#meb953def2d" y="307.584"/>
      </g>
     </g>
     <g id="text_5">
      <!-- 10 -->
      <g transform="translate(392.124773 322.182437)scale(0.1 -0.1)">
       <defs>
        <path d="M 12.40625 8.296875 
L 28.515625 8.296875 
L 28.515625 63.921875 
L 10.984375 60.40625 
L 10.984375 69.390625 
L 28.421875 72.90625 
L 38.28125 72.90625 
L 38.28125 8.296875 
L 54.390625 8.296875 
L 54.390625 0 
L 12.40625 0 
z
" id="DejaVuSans-49"/>
        <path d="M 31.78125 66.40625 
Q 24.171875 66.40625 20.328125 58.90625 
Q 16.5 51.421875 16.5 36.375 
Q 16.5 21.390625 20.328125 13.890625 
Q 24.171875 6.390625 31.78125 6.390625 
Q 39.453125 6.390625 43.28125 13.890625 
Q 47.125 21.390625 47.125 36.375 
Q 47.125 51.421875 43.28125 58.90625 
Q 39.453125 66.40625 31.78125 66.40625 
z
M 31.78125 74.21875 
Q 44.046875 74.21875 50.515625 64.515625 
Q 56.984375 54.828125 56.984375 36.375 
Q 56.984375 17.96875 50.515625 8.265625 
Q 44.046875 -1.421875 31.78125 -1.421875 
Q 19.53125 -1.421875 13.0625 8.265625 
Q 6.59375 17.96875 6.59375 36.375 
Q 6.59375 54.828125 13.0625 64.515625 
Q 19.53125 74.21875 31.78125 74.21875 
z
" id="DejaVuSans-48"/>
       </defs>
       <use xlink:href="#DejaVuSans-49"/>
       <use x="63.623047" xlink:href="#DejaVuSans-48"/>
      </g>
     </g>
    </g>
   </g>
   <g id="matplotlib.axis_2">
    <g id="ytick_1">
     <g id="line2d_6">
      <defs>
       <path d="M 0 0 
L -3.5 0 
" id="m0a0378f5c8" style="stroke:#000000;stroke-width:0.8;"/>
      </defs>
      <g>
       <use style="stroke:#000000;stroke-width:0.8;" x="57.6" xlink:href="#m0a0378f5c8" y="282.460066"/>
      </g>
     </g>
     <g id="text_6">
      <!-- −6 -->
      <g transform="translate(35.857813 286.259285)scale(0.1 -0.1)">
       <defs>
        <path d="M 10.59375 35.5 
L 73.1875 35.5 
L 73.1875 27.203125 
L 10.59375 27.203125 
z
" id="DejaVuSans-8722"/>
       </defs>
       <use xlink:href="#DejaVuSans-8722"/>
       <use x="83.789062" xlink:href="#DejaVuSans-54"/>
      </g>
     </g>
    </g>
    <g id="ytick_2">
     <g id="line2d_7">
      <g>
       <use style="stroke:#000000;stroke-width:0.8;" x="57.6" xlink:href="#m0a0378f5c8" y="250.970548"/>
      </g>
     </g>
     <g id="text_7">
      <!-- −4 -->
      <g transform="translate(35.857813 254.769767)scale(0.1 -0.1)">
       <use xlink:href="#DejaVuSans-8722"/>
       <use x="83.789062" xlink:href="#DejaVuSans-52"/>
      </g>
     </g>
    </g>
    <g id="ytick_3">
     <g id="line2d_8">
      <g>
       <use style="stroke:#000000;stroke-width:0.8;" x="57.6" xlink:href="#m0a0378f5c8" y="219.48103"/>
      </g>
     </g>
     <g id="text_8">
      <!-- −2 -->
      <g transform="translate(35.857813 223.280249)scale(0.1 -0.1)">
       <use xlink:href="#DejaVuSans-8722"/>
       <use x="83.789062" xlink:href="#DejaVuSans-50"/>
      </g>
     </g>
    </g>
    <g id="ytick_4">
     <g id="line2d_9">
      <g>
       <use style="stroke:#000000;stroke-width:0.8;" x="57.6" xlink:href="#m0a0378f5c8" y="187.991512"/>
      </g>
     </g>
     <g id="text_9">
      <!-- 0 -->
      <g transform="translate(44.2375 191.790731)scale(0.1 -0.1)">
       <use xlink:href="#DejaVuSans-48"/>
      </g>
     </g>
    </g>
    <g id="ytick_5">
     <g id="line2d_10">
      <g>
       <use style="stroke:#000000;stroke-width:0.8;" x="57.6" xlink:href="#m0a0378f5c8" y="156.501994"/>
      </g>
     </g>
     <g id="text_10">
      <!-- 2 -->
      <g transform="translate(44.2375 160.301213)scale(0.1 -0.1)">
       <use xlink:href="#DejaVuSans-50"/>
      </g>
     </g>
    </g>
    <g id="ytick_6">
     <g id="line2d_11">
      <g>
       <use style="stroke:#000000;stroke-width:0.8;" x="57.6" xlink:href="#m0a0378f5c8" y="125.012476"/>
      </g>
     </g>
     <g id="text_11">
      <!-- 4 -->
      <g transform="translate(44.2375 128.811694)scale(0.1 -0.1)">
       <use xlink:href="#DejaVuSans-52"/>
      </g>
     </g>
    </g>
    <g id="ytick_7">
     <g id="line2d_12">
      <g>
       <use style="stroke:#000000;stroke-width:0.8;" x="57.6" xlink:href="#m0a0378f5c8" y="93.522958"/>
      </g>
     </g>
     <g id="text_12">
      <!-- 6 -->
      <g transform="translate(44.2375 97.322176)scale(0.1 -0.1)">
       <use xlink:href="#DejaVuSans-54"/>
      </g>
     </g>
    </g>
    <g id="ytick_8">
     <g id="line2d_13">
      <g>
       <use style="stroke:#000000;stroke-width:0.8;" x="57.6" xlink:href="#m0a0378f5c8" y="62.03344"/>
      </g>
     </g>
     <g id="text_13">
      <!-- 8 -->
      <g transform="translate(44.2375 65.832658)scale(0.1 -0.1)">
       <use xlink:href="#DejaVuSans-56"/>
      </g>
     </g>
    </g>
   </g>
   <g id="line2d_14">
    <defs>
     <path d="M 0 1.5 
C 0.397805 1.5 0.77937 1.341951 1.06066 1.06066 
C 1.341951 0.77937 1.5 0.397805 1.5 0 
C 1.5 -0.397805 1.341951 -0.77937 1.06066 -1.06066 
C 0.77937 -1.341951 0.397805 -1.5 0 -1.5 
C -0.397805 -1.5 -0.77937 -1.341951 -1.06066 -1.06066 
C -1.341951 -0.77937 -1.5 -0.397805 -1.5 0 
C -1.5 0.397805 -1.341951 0.77937 -1.06066 1.06066 
C -0.77937 1.341951 -0.397805 1.5 0 1.5 
z
" id="meb28dbb8bd" style="stroke:#1f77b4;"/>
    </defs>
    <g clip-path="url(#p0a0329b25c)">
     <use style="fill:#1f77b4;stroke:#1f77b4;" x="73.832727" xlink:href="#meb28dbb8bd" y="53.568"/>
     <use style="fill:#1f77b4;stroke:#1f77b4;" x="109.905455" xlink:href="#meb28dbb8bd" y="64.64888"/>
     <use style="fill:#1f77b4;stroke:#1f77b4;" x="145.978182" xlink:href="#meb28dbb8bd" y="160.577475"/>
     <use style="fill:#1f77b4;stroke:#1f77b4;" x="182.050909" xlink:href="#meb28dbb8bd" y="142.927283"/>
     <use style="fill:#1f77b4;stroke:#1f77b4;" x="218.123636" xlink:href="#meb28dbb8bd" y="182.97263"/>
     <use style="fill:#1f77b4;stroke:#1f77b4;" x="254.196364" xlink:href="#meb28dbb8bd" y="240.070267"/>
     <use style="fill:#1f77b4;stroke:#1f77b4;" x="290.269091" xlink:href="#meb28dbb8bd" y="257.79735"/>
     <use style="fill:#1f77b4;stroke:#1f77b4;" x="326.341818" xlink:href="#meb28dbb8bd" y="277.065526"/>
     <use style="fill:#1f77b4;stroke:#1f77b4;" x="362.414545" xlink:href="#meb28dbb8bd" y="257.608587"/>
     <use style="fill:#1f77b4;stroke:#1f77b4;" x="398.487273" xlink:href="#meb28dbb8bd" y="187.991512"/>
    </g>
   </g>
   <g id="line2d_15">
    <path clip-path="url(#p0a0329b25c)" d="M 73.832727 85.849742 
L 77.112066 87.802732 
L 80.391405 89.755722 
L 83.670744 91.708712 
L 86.950083 93.661702 
L 90.229421 95.614693 
L 93.50876 97.567683 
L 96.788099 99.520673 
L 100.067438 101.473663 
L 103.346777 103.426653 
L 106.626116 105.379643 
L 109.905455 107.332633 
L 113.184793 109.285623 
L 116.464132 111.238613 
L 119.743471 113.191603 
L 123.02281 115.144593 
L 126.302149 117.097584 
L 129.581488 119.050574 
L 132.860826 121.003564 
L 136.140165 122.956554 
L 139.419504 124.909544 
L 142.698843 126.862534 
L 145.978182 128.815524 
L 149.257521 130.768514 
L 152.53686 132.721504 
L 155.816198 134.674494 
L 159.095537 136.627485 
L 162.374876 138.580475 
L 165.654215 140.533465 
L 168.933554 142.486455 
L 172.212893 144.439445 
L 175.492231 146.392435 
L 178.77157 148.345425 
L 182.050909 150.298415 
L 185.330248 152.251405 
L 188.609587 154.204395 
L 191.888926 156.157386 
L 195.168264 158.110376 
L 198.447603 160.063366 
L 201.726942 162.016356 
L 205.006281 163.969346 
L 208.28562 165.922336 
L 211.564959 167.875326 
L 214.844298 169.828316 
L 218.123636 171.781306 
L 221.402975 173.734296 
L 224.682314 175.687287 
L 227.961653 177.640277 
L 231.240992 179.593267 
L 234.520331 181.546257 
L 237.799669 183.499247 
L 241.079008 185.452237 
L 244.358347 187.405227 
L 247.637686 189.358217 
L 250.917025 191.311207 
L 254.196364 193.264197 
L 257.475702 195.217188 
L 260.755041 197.170178 
L 264.03438 199.123168 
L 267.313719 201.076158 
L 270.593058 203.029148 
L 273.872397 204.982138 
L 277.151736 206.935128 
L 280.431074 208.888118 
L 283.710413 210.841108 
L 286.989752 212.794098 
L 290.269091 214.747088 
L 293.54843 216.700079 
L 296.827769 218.653069 
L 300.107107 220.606059 
L 303.386446 222.559049 
L 306.665785 224.512039 
L 309.945124 226.465029 
L 313.224463 228.418019 
L 316.503802 230.371009 
L 319.78314 232.323999 
L 323.062479 234.276989 
L 326.341818 236.22998 
L 329.621157 238.18297 
L 332.900496 240.13596 
L 336.179835 242.08895 
L 339.459174 244.04194 
L 342.738512 245.99493 
L 346.017851 247.94792 
L 349.29719 249.90091 
L 352.576529 251.8539 
L 355.855868 253.80689 
L 359.135207 255.759881 
L 362.414545 257.712871 
L 365.693884 259.665861 
L 368.973223 261.618851 
L 372.252562 263.571841 
L 375.531901 265.524831 
L 378.81124 267.477821 
L 382.090579 269.430811 
L 385.369917 271.383801 
L 388.649256 273.336791 
L 391.928595 275.289782 
L 395.207934 277.242772 
L 398.487273 279.195762 
" style="fill:none;stroke:#ff7f0e;stroke-linecap:square;stroke-width:1.5;"/>
   </g>
   <g id="line2d_16">
    <path clip-path="url(#p0a0329b25c)" d="M 73.832727 81.805104 
L 77.112066 83.865769 
L 80.391405 85.926434 
L 83.670744 87.9871 
L 86.950083 90.047765 
L 90.229421 92.10843 
L 93.50876 94.169096 
L 96.788099 96.229761 
L 100.067438 98.290426 
L 103.346777 100.351092 
L 106.626116 102.411757 
L 109.905455 104.472422 
L 113.184793 106.533088 
L 116.464132 108.593753 
L 119.743471 110.654418 
L 123.02281 112.715084 
L 126.302149 114.775749 
L 129.581488 116.836414 
L 132.860826 118.89708 
L 136.140165 120.957745 
L 139.419504 123.01841 
L 142.698843 125.079076 
L 145.978182 127.139741 
L 149.257521 129.200406 
L 152.53686 131.261072 
L 155.816198 133.321737 
L 159.095537 135.382402 
L 162.374876 137.443068 
L 165.654215 139.503733 
L 168.933554 141.564398 
L 172.212893 143.625064 
L 175.492231 145.685729 
L 178.77157 147.746394 
L 182.050909 149.80706 
L 185.330248 151.867725 
L 188.609587 153.92839 
L 191.888926 155.989056 
L 195.168264 158.049721 
L 198.447603 160.110386 
L 201.726942 162.171052 
L 205.006281 164.231717 
L 208.28562 166.292382 
L 211.564959 168.353048 
L 214.844298 170.413713 
L 218.123636 172.474378 
L 221.402975 174.535044 
L 224.682314 176.595709 
L 227.961653 178.656374 
L 231.240992 180.71704 
L 234.520331 182.777705 
L 237.799669 184.83837 
L 241.079008 186.899036 
L 244.358347 188.959701 
L 247.637686 191.020366 
L 250.917025 193.081032 
L 254.196364 195.141697 
L 257.475702 197.202362 
L 260.755041 199.263028 
L 264.03438 201.323693 
L 267.313719 203.384358 
L 270.593058 205.445024 
L 273.872397 207.505689 
L 277.151736 209.566354 
L 280.431074 211.62702 
L 283.710413 213.687685 
L 286.989752 215.74835 
L 290.269091 217.809016 
L 293.54843 219.869681 
L 296.827769 221.930346 
L 300.107107 223.991012 
L 303.386446 226.051677 
L 306.665785 228.112342 
L 309.945124 230.173008 
L 313.224463 232.233673 
L 316.503802 234.294338 
L 319.78314 236.355004 
L 323.062479 238.415669 
L 326.341818 240.476334 
L 329.621157 242.537 
L 332.900496 244.597665 
L 336.179835 246.65833 
L 339.459174 248.718996 
L 342.738512 250.779661 
L 346.017851 252.840326 
L 349.29719 254.900992 
L 352.576529 256.961657 
L 355.855868 259.022322 
L 359.135207 261.082988 
L 362.414545 263.143653 
L 365.693884 265.204318 
L 368.973223 267.264984 
L 372.252562 269.325649 
L 375.531901 271.386314 
L 378.81124 273.44698 
L 382.090579 275.507645 
L 385.369917 277.56831 
L 388.649256 279.628976 
L 391.928595 281.689641 
L 395.207934 283.750306 
L 398.487273 285.810972 
" style="fill:none;stroke:#2ca02c;stroke-linecap:square;stroke-width:1.5;"/>
   </g>
   <g id="line2d_17">
    <path clip-path="url(#p0a0329b25c)" d="M 73.832727 78.996446 
L 77.112066 81.18323 
L 80.391405 83.370013 
L 83.670744 85.556797 
L 86.950083 87.74358 
L 90.229421 89.930363 
L 93.50876 92.117147 
L 96.788099 94.30393 
L 100.067438 96.490713 
L 103.346777 98.677497 
L 106.626116 100.86428 
L 109.905455 103.051063 
L 113.184793 105.237847 
L 116.464132 107.42463 
L 119.743471 109.611414 
L 123.02281 111.798197 
L 126.302149 113.98498 
L 129.581488 116.171764 
L 132.860826 118.358547 
L 136.140165 120.54533 
L 139.419504 122.732114 
L 142.698843 124.918897 
L 145.978182 127.105681 
L 149.257521 129.292464 
L 152.53686 131.479247 
L 155.816198 133.666031 
L 159.095537 135.852814 
L 162.374876 138.039597 
L 165.654215 140.226381 
L 168.933554 142.413164 
L 172.212893 144.599948 
L 175.492231 146.786731 
L 178.77157 148.973514 
L 182.050909 151.160298 
L 185.330248 153.347081 
L 188.609587 155.533864 
L 191.888926 157.720648 
L 195.168264 159.907431 
L 198.447603 162.094214 
L 201.726942 164.280998 
L 205.006281 166.467781 
L 208.28562 168.654565 
L 211.564959 170.841348 
L 214.844298 173.028131 
L 218.123636 175.214915 
L 221.402975 177.401698 
L 224.682314 179.588481 
L 227.961653 181.775265 
L 231.240992 183.962048 
L 234.520331 186.148832 
L 237.799669 188.335615 
L 241.079008 190.522398 
L 244.358347 192.709182 
L 247.637686 194.895965 
L 250.917025 197.082748 
L 254.196364 199.269532 
L 257.475702 201.456315 
L 260.755041 203.643098 
L 264.03438 205.829882 
L 267.313719 208.016665 
L 270.593058 210.203449 
L 273.872397 212.390232 
L 277.151736 214.577015 
L 280.431074 216.763799 
L 283.710413 218.950582 
L 286.989752 221.137365 
L 290.269091 223.324149 
L 293.54843 225.510932 
L 296.827769 227.697716 
L 300.107107 229.884499 
L 303.386446 232.071282 
L 306.665785 234.258066 
L 309.945124 236.444849 
L 313.224463 238.631632 
L 316.503802 240.818416 
L 319.78314 243.005199 
L 323.062479 245.191983 
L 326.341818 247.378766 
L 329.621157 249.565549 
L 332.900496 251.752333 
L 336.179835 253.939116 
L 339.459174 256.125899 
L 342.738512 258.312683 
L 346.017851 260.499466 
L 349.29719 262.686249 
L 352.576529 264.873033 
L 355.855868 267.059816 
L 359.135207 269.2466 
L 362.414545 271.433383 
L 365.693884 273.620166 
L 368.973223 275.80695 
L 372.252562 277.993733 
L 375.531901 280.180516 
L 378.81124 282.3673 
L 382.090579 284.554083 
L 385.369917 286.740867 
L 388.649256 288.92765 
L 391.928595 291.114433 
L 395.207934 293.301217 
L 398.487273 295.488 
" style="fill:none;stroke:#d62728;stroke-linecap:square;stroke-width:1.5;"/>
   </g>
   <g id="patch_3">
    <path d="M 57.6 307.584 
L 57.6 41.472 
" style="fill:none;stroke:#000000;stroke-linecap:square;stroke-linejoin:miter;stroke-width:0.8;"/>
   </g>
   <g id="patch_4">
    <path d="M 414.72 307.584 
L 414.72 41.472 
" style="fill:none;stroke:#000000;stroke-linecap:square;stroke-linejoin:miter;stroke-width:0.8;"/>
   </g>
   <g id="patch_5">
    <path d="M 57.6 307.584 
L 414.72 307.584 
" style="fill:none;stroke:#000000;stroke-linecap:square;stroke-linejoin:miter;stroke-width:0.8;"/>
   </g>
   <g id="patch_6">
    <path d="M 57.6 41.472 
L 414.72 41.472 
" style="fill:none;stroke:#000000;stroke-linecap:square;stroke-linejoin:miter;stroke-width:0.8;"/>
   </g>
   <g id="legend_1">
    <g id="patch_7">
     <path d="M 334.26375 93.506375 
L 407.72 93.506375 
Q 409.72 93.506375 409.72 91.506375 
L 409.72 48.472 
Q 409.72 46.472 407.72 46.472 
L 334.26375 46.472 
Q 332.26375 46.472 332.26375 48.472 
L 332.26375 91.506375 
Q 332.26375 93.506375 334.26375 93.506375 
z
" style="fill:#ffffff;opacity:0.8;stroke:#cccccc;stroke-linejoin:miter;"/>
    </g>
    <g id="line2d_18">
     <path d="M 336.26375 54.570438 
L 356.26375 54.570438 
" style="fill:none;stroke:#ff7f0e;stroke-linecap:square;stroke-width:1.5;"/>
    </g>
    <g id="line2d_19"/>
    <g id="text_14">
     <!-- OLS -->
     <g transform="translate(364.26375 58.070438)scale(0.1 -0.1)">
      <defs>
       <path d="M 39.40625 66.21875 
Q 28.65625 66.21875 22.328125 58.203125 
Q 16.015625 50.203125 16.015625 36.375 
Q 16.015625 22.609375 22.328125 14.59375 
Q 28.65625 6.59375 39.40625 6.59375 
Q 50.140625 6.59375 56.421875 14.59375 
Q 62.703125 22.609375 62.703125 36.375 
Q 62.703125 50.203125 56.421875 58.203125 
Q 50.140625 66.21875 39.40625 66.21875 
z
M 39.40625 74.21875 
Q 54.734375 74.21875 63.90625 63.9375 
Q 73.09375 53.65625 73.09375 36.375 
Q 73.09375 19.140625 63.90625 8.859375 
Q 54.734375 -1.421875 39.40625 -1.421875 
Q 24.03125 -1.421875 14.8125 8.828125 
Q 5.609375 19.09375 5.609375 36.375 
Q 5.609375 53.65625 14.8125 63.9375 
Q 24.03125 74.21875 39.40625 74.21875 
z
" id="DejaVuSans-79"/>
       <path d="M 9.8125 72.90625 
L 19.671875 72.90625 
L 19.671875 8.296875 
L 55.171875 8.296875 
L 55.171875 0 
L 9.8125 0 
z
" id="DejaVuSans-76"/>
       <path d="M 53.515625 70.515625 
L 53.515625 60.890625 
Q 47.90625 63.578125 42.921875 64.890625 
Q 37.9375 66.21875 33.296875 66.21875 
Q 25.25 66.21875 20.875 63.09375 
Q 16.5 59.96875 16.5 54.203125 
Q 16.5 49.359375 19.40625 46.890625 
Q 22.3125 44.4375 30.421875 42.921875 
L 36.375 41.703125 
Q 47.40625 39.59375 52.65625 34.296875 
Q 57.90625 29 57.90625 20.125 
Q 57.90625 9.515625 50.796875 4.046875 
Q 43.703125 -1.421875 29.984375 -1.421875 
Q 24.8125 -1.421875 18.96875 -0.25 
Q 13.140625 0.921875 6.890625 3.21875 
L 6.890625 13.375 
Q 12.890625 10.015625 18.65625 8.296875 
Q 24.421875 6.59375 29.984375 6.59375 
Q 38.421875 6.59375 43.015625 9.90625 
Q 47.609375 13.234375 47.609375 19.390625 
Q 47.609375 24.75 44.3125 27.78125 
Q 41.015625 30.8125 33.5 32.328125 
L 27.484375 33.5 
Q 16.453125 35.6875 11.515625 40.375 
Q 6.59375 45.0625 6.59375 53.421875 
Q 6.59375 63.09375 13.40625 68.65625 
Q 20.21875 74.21875 32.171875 74.21875 
Q 37.3125 74.21875 42.625 73.28125 
Q 47.953125 72.359375 53.515625 70.515625 
z
" id="DejaVuSans-83"/>
      </defs>
      <use xlink:href="#DejaVuSans-79"/>
      <use x="78.710938" xlink:href="#DejaVuSans-76"/>
      <use x="134.423828" xlink:href="#DejaVuSans-83"/>
     </g>
    </g>
    <g id="line2d_20">
     <path d="M 336.26375 69.248563 
L 356.26375 69.248563 
" style="fill:none;stroke:#2ca02c;stroke-linecap:square;stroke-width:1.5;"/>
    </g>
    <g id="line2d_21"/>
    <g id="text_15">
     <!-- IRLS -->
     <g transform="translate(364.26375 72.748563)scale(0.1 -0.1)">
      <defs>
       <path d="M 9.8125 72.90625 
L 19.671875 72.90625 
L 19.671875 0 
L 9.8125 0 
z
" id="DejaVuSans-73"/>
       <path d="M 44.390625 34.1875 
Q 47.5625 33.109375 50.5625 29.59375 
Q 53.5625 26.078125 56.59375 19.921875 
L 66.609375 0 
L 56 0 
L 46.6875 18.703125 
Q 43.0625 26.03125 39.671875 28.421875 
Q 36.28125 30.8125 30.421875 30.8125 
L 19.671875 30.8125 
L 19.671875 0 
L 9.8125 0 
L 9.8125 72.90625 
L 32.078125 72.90625 
Q 44.578125 72.90625 50.734375 67.671875 
Q 56.890625 62.453125 56.890625 51.90625 
Q 56.890625 45.015625 53.6875 40.46875 
Q 50.484375 35.9375 44.390625 34.1875 
z
M 19.671875 64.796875 
L 19.671875 38.921875 
L 32.078125 38.921875 
Q 39.203125 38.921875 42.84375 42.21875 
Q 46.484375 45.515625 46.484375 51.90625 
Q 46.484375 58.296875 42.84375 61.546875 
Q 39.203125 64.796875 32.078125 64.796875 
z
" id="DejaVuSans-82"/>
      </defs>
      <use xlink:href="#DejaVuSans-73"/>
      <use x="29.492188" xlink:href="#DejaVuSans-82"/>
      <use x="98.974609" xlink:href="#DejaVuSans-76"/>
      <use x="154.6875" xlink:href="#DejaVuSans-83"/>
     </g>
    </g>
    <g id="line2d_22">
     <path d="M 336.26375 83.926688 
L 356.26375 83.926688 
" style="fill:none;stroke:#d62728;stroke-linecap:square;stroke-width:1.5;"/>
    </g>
    <g id="line2d_23"/>
    <g id="text_16">
     <!-- ROBUST -->
     <g transform="translate(364.26375 87.426688)scale(0.1 -0.1)">
      <defs>
       <path d="M 19.671875 34.8125 
L 19.671875 8.109375 
L 35.5 8.109375 
Q 43.453125 8.109375 47.28125 11.40625 
Q 51.125 14.703125 51.125 21.484375 
Q 51.125 28.328125 47.28125 31.5625 
Q 43.453125 34.8125 35.5 34.8125 
z
M 19.671875 64.796875 
L 19.671875 42.828125 
L 34.28125 42.828125 
Q 41.5 42.828125 45.03125 45.53125 
Q 48.578125 48.25 48.578125 53.8125 
Q 48.578125 59.328125 45.03125 62.0625 
Q 41.5 64.796875 34.28125 64.796875 
z
M 9.8125 72.90625 
L 35.015625 72.90625 
Q 46.296875 72.90625 52.390625 68.21875 
Q 58.5 63.53125 58.5 54.890625 
Q 58.5 48.1875 55.375 44.234375 
Q 52.25 40.28125 46.1875 39.3125 
Q 53.46875 37.75 57.5 32.78125 
Q 61.53125 27.828125 61.53125 20.40625 
Q 61.53125 10.640625 54.890625 5.3125 
Q 48.25 0 35.984375 0 
L 9.8125 0 
z
" id="DejaVuSans-66"/>
       <path d="M 8.6875 72.90625 
L 18.609375 72.90625 
L 18.609375 28.609375 
Q 18.609375 16.890625 22.84375 11.734375 
Q 27.09375 6.59375 36.625 6.59375 
Q 46.09375 6.59375 50.34375 11.734375 
Q 54.59375 16.890625 54.59375 28.609375 
L 54.59375 72.90625 
L 64.5 72.90625 
L 64.5 27.390625 
Q 64.5 13.140625 57.4375 5.859375 
Q 50.390625 -1.421875 36.625 -1.421875 
Q 22.796875 -1.421875 15.734375 5.859375 
Q 8.6875 13.140625 8.6875 27.390625 
z
" id="DejaVuSans-85"/>
       <path d="M -0.296875 72.90625 
L 61.375 72.90625 
L 61.375 64.59375 
L 35.5 64.59375 
L 35.5 0 
L 25.59375 0 
L 25.59375 64.59375 
L -0.296875 64.59375 
z
" id="DejaVuSans-84"/>
      </defs>
      <use xlink:href="#DejaVuSans-82"/>
      <use x="69.482422" xlink:href="#DejaVuSans-79"/>
      <use x="148.193359" xlink:href="#DejaVuSans-66"/>
      <use x="216.796875" xlink:href="#DejaVuSans-85"/>
      <use x="289.990234" xlink:href="#DejaVuSans-83"/>
      <use x="353.466797" xlink:href="#DejaVuSans-84"/>
     </g>
    </g>
   </g>
  </g>
 </g>
 <defs>
  <clipPath id="p0a0329b25c">
   <rect height="266.112" width="357.12" x="57.6" y="41.472"/>
  </clipPath>
 </defs>
</svg>
